<mxfile host="65bd71144e" pages="2">
    <diagram name="Reviews Use Case Diagram" id="OifyI4WR07Ny5c5B6LSC">
        <mxGraphModel dx="255" dy="519" grid="1" gridSize="10" guides="1" tooltips="1" connect="1" arrows="1" fold="1" page="1" pageScale="1.5" pageWidth="1169" pageHeight="826" background="none" math="0" shadow="0">
            <root>
                <mxCell id="kJucp_VOQ4L5jVynimr2-0" style=";html=1;"/>
                <mxCell id="kJucp_VOQ4L5jVynimr2-1" style=";html=1;" parent="kJucp_VOQ4L5jVynimr2-0"/>
                <mxCell id="kJucp_VOQ4L5jVynimr2-2" value="&lt;p style=&quot;margin: 0px ; margin-top: 4px ; margin-left: 10px ; text-align: left&quot;&gt;&lt;b&gt;Customer Writing a Review - Use Case Diagram&lt;/b&gt;&lt;br&gt;&lt;/p&gt;" style="html=1;strokeWidth=1;shape=mxgraph.sysml.package;html=1;overflow=fill;whiteSpace=wrap;fillColor=none;gradientColor=none;fontSize=12;align=center;labelX=327.64;" parent="kJucp_VOQ4L5jVynimr2-1" vertex="1">
                    <mxGeometry x="270" y="200" width="1120" height="650" as="geometry"/>
                </mxCell>
                <mxCell id="kJucp_VOQ4L5jVynimr2-24" value="DSS Reviews" style="text;strokeColor=none;fillColor=none;html=1;fontSize=24;fontStyle=1;verticalAlign=middle;align=center;" parent="kJucp_VOQ4L5jVynimr2-1" vertex="1">
                    <mxGeometry x="120" y="40" width="1510" height="40" as="geometry"/>
                </mxCell>
                <mxCell id="s-Sxeqdd2UQZ5VzBVCuT-0" value="&lt;br&gt;&amp;lt;&amp;lt;Subsystem&amp;gt;&amp;gt;&lt;br&gt;Reviews&lt;br&gt;&lt;br&gt;&lt;br&gt;&lt;br&gt;&lt;br&gt;&lt;br&gt;&lt;br&gt;&lt;br&gt;&lt;br&gt;&lt;br&gt;&lt;br&gt;&lt;br&gt;&lt;br&gt;&lt;br&gt;&lt;br&gt;&lt;br&gt;&lt;br&gt;&lt;br&gt;&lt;br&gt;&lt;br&gt;&lt;br&gt;&lt;br&gt;&lt;br&gt;&lt;br&gt;&lt;br&gt;&lt;br&gt;&lt;br&gt;&lt;br&gt;&lt;br&gt;&lt;br&gt;&lt;br&gt;&lt;br&gt;" style="rounded=0;whiteSpace=wrap;html=1;align=left;" parent="kJucp_VOQ4L5jVynimr2-1" vertex="1">
                    <mxGeometry x="570" y="250" width="507.25" height="490" as="geometry"/>
                </mxCell>
                <mxCell id="s-Sxeqdd2UQZ5VzBVCuT-1" value="Customer" style="shape=umlActor;verticalLabelPosition=bottom;verticalAlign=top;html=1;outlineConnect=0;" parent="kJucp_VOQ4L5jVynimr2-1" vertex="1">
                    <mxGeometry x="390" y="320" width="65" height="130" as="geometry"/>
                </mxCell>
                <mxCell id="s-Sxeqdd2UQZ5VzBVCuT-6" value="Add Review" style="ellipse;whiteSpace=wrap;html=1;" parent="kJucp_VOQ4L5jVynimr2-1" vertex="1">
                    <mxGeometry x="740" y="440" width="120" height="80" as="geometry"/>
                </mxCell>
                <mxCell id="s-Sxeqdd2UQZ5VzBVCuT-7" value="&amp;lt;&amp;lt;Service&amp;gt;&amp;gt;&lt;br&gt;Auto-Checker" style="shape=umlActor;verticalLabelPosition=bottom;verticalAlign=top;html=1;outlineConnect=0;" parent="kJucp_VOQ4L5jVynimr2-1" vertex="1">
                    <mxGeometry x="1180" y="320" width="65" height="130" as="geometry"/>
                </mxCell>
                <mxCell id="s-Sxeqdd2UQZ5VzBVCuT-8" value="Submit Review" style="ellipse;whiteSpace=wrap;html=1;" parent="kJucp_VOQ4L5jVynimr2-1" vertex="1">
                    <mxGeometry x="877" y="500" width="120" height="80" as="geometry"/>
                </mxCell>
                <mxCell id="s-Sxeqdd2UQZ5VzBVCuT-12" value="" style="endArrow=none;html=1;entryX=0;entryY=0.5;entryDx=0;entryDy=0;" parent="kJucp_VOQ4L5jVynimr2-1" source="s-Sxeqdd2UQZ5VzBVCuT-1" target="s-Sxeqdd2UQZ5VzBVCuT-6" edge="1">
                    <mxGeometry width="50" height="50" relative="1" as="geometry">
                        <mxPoint x="530" y="500" as="sourcePoint"/>
                        <mxPoint x="737" y="500" as="targetPoint"/>
                        <Array as="points"/>
                    </mxGeometry>
                </mxCell>
                <mxCell id="s-Sxeqdd2UQZ5VzBVCuT-15" value="&amp;lt;&amp;lt;Service&amp;gt;&amp;gt;&lt;br&gt;Reviews" style="shape=umlActor;verticalLabelPosition=bottom;verticalAlign=top;html=1;outlineConnect=0;" parent="kJucp_VOQ4L5jVynimr2-1" vertex="1">
                    <mxGeometry x="1180" y="565" width="65" height="130" as="geometry"/>
                </mxCell>
                <mxCell id="s-Sxeqdd2UQZ5VzBVCuT-18" value="" style="endArrow=none;html=1;exitX=1;exitY=0.5;exitDx=0;exitDy=0;" parent="kJucp_VOQ4L5jVynimr2-1" source="s-Sxeqdd2UQZ5VzBVCuT-6" target="s-Sxeqdd2UQZ5VzBVCuT-7" edge="1">
                    <mxGeometry width="50" height="50" relative="1" as="geometry">
                        <mxPoint x="900" y="574.96" as="sourcePoint"/>
                        <mxPoint x="1160" y="360" as="targetPoint"/>
                        <Array as="points"/>
                    </mxGeometry>
                </mxCell>
                <mxCell id="s-Sxeqdd2UQZ5VzBVCuT-19" value="" style="endArrow=none;html=1;" parent="kJucp_VOQ4L5jVynimr2-1" source="s-Sxeqdd2UQZ5VzBVCuT-8" target="s-Sxeqdd2UQZ5VzBVCuT-15" edge="1">
                    <mxGeometry width="50" height="50" relative="1" as="geometry">
                        <mxPoint x="857" y="679.5" as="sourcePoint"/>
                        <mxPoint x="1120" y="590" as="targetPoint"/>
                        <Array as="points"/>
                    </mxGeometry>
                </mxCell>
                <mxCell id="s-Sxeqdd2UQZ5VzBVCuT-21" value="" style="endArrow=none;html=1;" parent="kJucp_VOQ4L5jVynimr2-1" source="s-Sxeqdd2UQZ5VzBVCuT-8" target="s-Sxeqdd2UQZ5VzBVCuT-7" edge="1">
                    <mxGeometry width="50" height="50" relative="1" as="geometry">
                        <mxPoint x="867" y="530" as="sourcePoint"/>
                        <mxPoint x="1160" y="360" as="targetPoint"/>
                        <Array as="points"/>
                    </mxGeometry>
                </mxCell>
                <mxCell id="s-Sxeqdd2UQZ5VzBVCuT-30" value="" style="endArrow=none;html=1;" parent="kJucp_VOQ4L5jVynimr2-1" source="s-Sxeqdd2UQZ5VzBVCuT-1" target="s-Sxeqdd2UQZ5VzBVCuT-28" edge="1">
                    <mxGeometry width="50" height="50" relative="1" as="geometry">
                        <mxPoint x="500" y="400" as="sourcePoint"/>
                        <mxPoint x="790" y="430.0000000000002" as="targetPoint"/>
                        <Array as="points"/>
                    </mxGeometry>
                </mxCell>
                <mxCell id="s-Sxeqdd2UQZ5VzBVCuT-32" value="" style="endArrow=none;html=1;exitX=1;exitY=0.5;exitDx=0;exitDy=0;" parent="kJucp_VOQ4L5jVynimr2-1" source="s-Sxeqdd2UQZ5VzBVCuT-28" target="s-Sxeqdd2UQZ5VzBVCuT-7" edge="1">
                    <mxGeometry width="50" height="50" relative="1" as="geometry">
                        <mxPoint x="910" y="500.0000000000002" as="sourcePoint"/>
                        <mxPoint x="1160" y="360" as="targetPoint"/>
                        <Array as="points"/>
                    </mxGeometry>
                </mxCell>
                <mxCell id="s-Sxeqdd2UQZ5VzBVCuT-36" value="&amp;lt;&amp;lt;include&amp;gt;&amp;gt;" style="endArrow=open;endSize=12;dashed=1;html=1;exitX=0.5;exitY=1;exitDx=0;exitDy=0;" parent="kJucp_VOQ4L5jVynimr2-1" source="s-Sxeqdd2UQZ5VzBVCuT-28" target="s-Sxeqdd2UQZ5VzBVCuT-6" edge="1">
                    <mxGeometry width="160" relative="1" as="geometry">
                        <mxPoint x="850" y="450" as="sourcePoint"/>
                        <mxPoint x="1010" y="450" as="targetPoint"/>
                        <Array as="points"/>
                    </mxGeometry>
                </mxCell>
                <mxCell id="s-Sxeqdd2UQZ5VzBVCuT-41" value="Delete Review" style="ellipse;whiteSpace=wrap;html=1;" parent="kJucp_VOQ4L5jVynimr2-1" vertex="1">
                    <mxGeometry x="640" y="590" width="120" height="80" as="geometry"/>
                </mxCell>
                <mxCell id="s-Sxeqdd2UQZ5VzBVCuT-43" value="" style="endArrow=none;html=1;entryX=0;entryY=0.5;entryDx=0;entryDy=0;" parent="kJucp_VOQ4L5jVynimr2-1" source="s-Sxeqdd2UQZ5VzBVCuT-1" target="s-Sxeqdd2UQZ5VzBVCuT-41" edge="1">
                    <mxGeometry width="50" height="50" relative="1" as="geometry">
                        <mxPoint x="500" y="360" as="sourcePoint"/>
                        <mxPoint x="789.9988663399037" y="484.9989491659441" as="targetPoint"/>
                        <Array as="points"/>
                    </mxGeometry>
                </mxCell>
                <mxCell id="s-Sxeqdd2UQZ5VzBVCuT-45" value="&amp;lt;&amp;lt;extend&amp;gt;&amp;gt;" style="endArrow=open;endSize=12;dashed=1;html=1;entryX=0.5;entryY=1;entryDx=0;entryDy=0;" parent="kJucp_VOQ4L5jVynimr2-1" source="s-Sxeqdd2UQZ5VzBVCuT-41" target="s-Sxeqdd2UQZ5VzBVCuT-6" edge="1">
                    <mxGeometry width="160" relative="1" as="geometry">
                        <mxPoint x="859.99" y="480" as="sourcePoint"/>
                        <mxPoint x="860" y="410" as="targetPoint"/>
                    </mxGeometry>
                </mxCell>
                <mxCell id="s-Sxeqdd2UQZ5VzBVCuT-28" value="Edit Review" style="ellipse;whiteSpace=wrap;html=1;" parent="kJucp_VOQ4L5jVynimr2-1" vertex="1">
                    <mxGeometry x="740" y="290" width="120" height="80" as="geometry"/>
                </mxCell>
                <mxCell id="s-Sxeqdd2UQZ5VzBVCuT-47" value="" style="endArrow=none;html=1;exitX=1;exitY=0.5;exitDx=0;exitDy=0;" parent="kJucp_VOQ4L5jVynimr2-1" target="s-Sxeqdd2UQZ5VzBVCuT-15" edge="1">
                    <mxGeometry width="50" height="50" relative="1" as="geometry">
                        <mxPoint x="760" y="630" as="sourcePoint"/>
                        <mxPoint x="1150" y="639" as="targetPoint"/>
                        <Array as="points"/>
                    </mxGeometry>
                </mxCell>
            </root>
        </mxGraphModel>
    </diagram>
    <diagram name="Template Diagram" id="929967ad-93f9-6ef4-fab6-5d389245f69c">
        <mxGraphModel dx="255" dy="519" grid="1" gridSize="10" guides="1" tooltips="1" connect="1" arrows="1" fold="1" page="1" pageScale="1.5" pageWidth="1169" pageHeight="826" background="none" math="0" shadow="0">
            <root>
                <mxCell id="0" style=";html=1;"/>
                <mxCell id="1" style=";html=1;" parent="0"/>
                <mxCell id="1672d66443f91eb5-1" value="&lt;p style=&quot;margin: 0px ; margin-top: 4px ; margin-left: 10px ; text-align: left&quot;&gt;&lt;b&gt;req&lt;/b&gt;&amp;nbsp;[package] HSUVRequirements[HSUV Specification]&lt;/p&gt;" style="html=1;strokeWidth=1;shape=mxgraph.sysml.package;html=1;overflow=fill;whiteSpace=wrap;fillColor=none;gradientColor=none;fontSize=12;align=center;labelX=327.64;" parent="1" vertex="1">
                    <mxGeometry x="317" y="295" width="1120" height="650" as="geometry"/>
                </mxCell>
                <mxCell id="1672d66443f91eb5-2" value="HSUVSpecification" style="shape=folder;tabWidth=80;tabHeight=20;tabPosition=left;strokeWidth=1;html=1;whiteSpace=wrap;align=center;fontSize=12;fontStyle=1" parent="1" vertex="1">
                    <mxGeometry x="437" y="355" width="160" height="90" as="geometry"/>
                </mxCell>
                <mxCell id="1672d66443f91eb5-3" value="&lt;b&gt;RefinedBy&lt;/b&gt;&lt;div&gt;&amp;lt;&amp;lt;&amp;gt;useCase&amp;gt; HSUVUseCases : Accelerate&lt;/div&gt;" style="shape=note;size=15;align=left;spacingLeft=10;html=1;whiteSpace=wrap;strokeColor=#000000;strokeWidth=1;fillColor=#ffffff;fontSize=12;" parent="1" vertex="1">
                    <mxGeometry x="867" y="365" width="300" height="60" as="geometry"/>
                </mxCell>
                <mxCell id="1672d66443f91eb5-13" style="edgeStyle=orthogonalEdgeStyle;rounded=0;html=1;jettySize=auto;orthogonalLoop=1;endArrow=circlePlus;endFill=0;" parent="1" source="1672d66443f91eb5-4" target="1672d66443f91eb5-2" edge="1">
                    <mxGeometry relative="1" as="geometry">
                        <Array as="points">
                            <mxPoint x="477" y="485"/>
                            <mxPoint x="517" y="485"/>
                        </Array>
                    </mxGeometry>
                </mxCell>
                <mxCell id="1672d66443f91eb5-4" value="&lt;p&gt;&amp;lt;&amp;lt;requirement&amp;gt;&amp;gt;&lt;/p&gt;&lt;p&gt;Eco-Friendliness&lt;/p&gt;" style="shape=rect;html=1;overflow=fill;whiteSpace=wrap;align=center;fontStyle=1" parent="1" vertex="1">
                    <mxGeometry x="397" y="535" width="160" height="80" as="geometry"/>
                </mxCell>
                <mxCell id="1672d66443f91eb5-15" style="edgeStyle=orthogonalEdgeStyle;rounded=0;html=1;endArrow=circlePlus;endFill=0;jettySize=auto;orthogonalLoop=1;" parent="1" source="1672d66443f91eb5-5" target="1672d66443f91eb5-2" edge="1">
                    <mxGeometry relative="1" as="geometry">
                        <Array as="points">
                            <mxPoint x="717" y="485"/>
                            <mxPoint x="517" y="485"/>
                        </Array>
                    </mxGeometry>
                </mxCell>
                <mxCell id="1672d66443f91eb5-5" value="&lt;p&gt;&amp;lt;&amp;lt;requirement&amp;gt;&amp;gt;&lt;/p&gt;&lt;p&gt;Performance&lt;/p&gt;" style="shape=rect;html=1;overflow=fill;whiteSpace=wrap;align=center;fontStyle=1" parent="1" vertex="1">
                    <mxGeometry x="637" y="535" width="160" height="70" as="geometry"/>
                </mxCell>
                <mxCell id="1672d66443f91eb5-21" style="edgeStyle=none;rounded=0;html=1;dashed=1;endArrow=none;endFill=0;jettySize=auto;orthogonalLoop=1;" parent="1" source="1672d66443f91eb5-6" target="1672d66443f91eb5-9" edge="1">
                    <mxGeometry relative="1" as="geometry"/>
                </mxCell>
                <mxCell id="1672d66443f91eb5-6" value="&lt;p&gt;&amp;lt;&amp;lt;requirement&amp;gt;&amp;gt;&lt;/p&gt;&lt;p&gt;Power&lt;/p&gt;" style="shape=rect;html=1;overflow=fill;whiteSpace=wrap;align=center;fontStyle=1" parent="1" vertex="1">
                    <mxGeometry x="1107" y="535" width="160" height="70" as="geometry"/>
                </mxCell>
                <mxCell id="1672d66443f91eb5-16" style="edgeStyle=orthogonalEdgeStyle;rounded=0;html=1;endArrow=circlePlus;endFill=0;jettySize=auto;orthogonalLoop=1;entryX=0.25;entryY=1;" parent="1" source="1672d66443f91eb5-7" target="1672d66443f91eb5-5" edge="1">
                    <mxGeometry relative="1" as="geometry">
                        <Array as="points">
                            <mxPoint x="627" y="635"/>
                            <mxPoint x="677" y="635"/>
                        </Array>
                    </mxGeometry>
                </mxCell>
                <mxCell id="1672d66443f91eb5-7" value="&lt;p&gt;&amp;lt;&amp;lt;requirement&amp;gt;&amp;gt;&lt;/p&gt;&lt;p&gt;Braking&lt;/p&gt;" style="shape=rect;html=1;overflow=fill;whiteSpace=wrap;align=center;fontStyle=1" parent="1" vertex="1">
                    <mxGeometry x="547" y="655" width="160" height="70" as="geometry"/>
                </mxCell>
                <mxCell id="1672d66443f91eb5-17" style="edgeStyle=orthogonalEdgeStyle;rounded=0;html=1;endArrow=circlePlus;endFill=0;jettySize=auto;orthogonalLoop=1;entryX=0.5;entryY=1;" parent="1" source="1672d66443f91eb5-8" target="1672d66443f91eb5-5" edge="1">
                    <mxGeometry relative="1" as="geometry">
                        <Array as="points">
                            <mxPoint x="817" y="635"/>
                            <mxPoint x="717" y="635"/>
                        </Array>
                    </mxGeometry>
                </mxCell>
                <mxCell id="1672d66443f91eb5-8" value="&lt;p&gt;&amp;lt;&amp;lt;requirement&amp;gt;&amp;gt;&lt;/p&gt;&lt;p&gt;FuelEconomy&lt;/p&gt;" style="shape=rect;html=1;overflow=fill;whiteSpace=wrap;align=center;fontStyle=1" parent="1" vertex="1">
                    <mxGeometry x="737" y="655" width="160" height="70" as="geometry"/>
                </mxCell>
                <mxCell id="1672d66443f91eb5-18" style="edgeStyle=orthogonalEdgeStyle;rounded=0;html=1;endArrow=circlePlus;endFill=0;jettySize=auto;orthogonalLoop=1;entryX=0.75;entryY=1;" parent="1" source="1672d66443f91eb5-9" target="1672d66443f91eb5-5" edge="1">
                    <mxGeometry relative="1" as="geometry">
                        <Array as="points">
                            <mxPoint x="1017" y="625"/>
                            <mxPoint x="757" y="625"/>
                        </Array>
                    </mxGeometry>
                </mxCell>
                <mxCell id="1672d66443f91eb5-22" style="edgeStyle=none;rounded=0;html=1;dashed=1;endArrow=none;endFill=0;jettySize=auto;orthogonalLoop=1;" parent="1" source="1672d66443f91eb5-9" target="1672d66443f91eb5-3" edge="1">
                    <mxGeometry relative="1" as="geometry"/>
                </mxCell>
                <mxCell id="1672d66443f91eb5-9" value="&lt;p&gt;&amp;lt;&amp;lt;requirement&amp;gt;&amp;gt;&lt;/p&gt;&lt;p&gt;Acceleration&lt;/p&gt;" style="shape=rect;html=1;overflow=fill;whiteSpace=wrap;align=center;fontStyle=1" parent="1" vertex="1">
                    <mxGeometry x="937" y="655" width="160" height="70" as="geometry"/>
                </mxCell>
                <mxCell id="1672d66443f91eb5-14" style="edgeStyle=orthogonalEdgeStyle;rounded=0;html=1;endArrow=circlePlus;endFill=0;jettySize=auto;orthogonalLoop=1;" parent="1" source="1672d66443f91eb5-10" target="1672d66443f91eb5-4" edge="1">
                    <mxGeometry relative="1" as="geometry">
                        <Array as="points">
                            <mxPoint x="477" y="755"/>
                            <mxPoint x="477" y="755"/>
                        </Array>
                    </mxGeometry>
                </mxCell>
                <mxCell id="1672d66443f91eb5-10" value="&lt;p style=&quot;margin: 0px ; margin-top: 4px ; text-align: center&quot;&gt;&amp;lt;&amp;lt;requirement&amp;gt;&amp;gt;&lt;br&gt;&lt;b&gt;Emissions&lt;/b&gt;&lt;/p&gt;&lt;hr&gt;&lt;p style=&quot;margin: 0px ; margin-left: 8px ; text-align: left&quot;&gt;Id = &quot;R1.1.2&quot;&lt;/p&gt;&lt;p style=&quot;margin: 0px ; margin-left: 8px ; text-align: left&quot;&gt;text=&quot;The vehicle shall meet UltraLow Emissions Vehicle standards.&quot;&lt;/p&gt;" style="shape=rect;html=1;overflow=fill;whiteSpace=wrap;" parent="1" vertex="1">
                    <mxGeometry x="427" y="785" width="290" height="120" as="geometry"/>
                </mxCell>
                <mxCell id="1672d66443f91eb5-19" style="rounded=0;html=1;endArrow=none;endFill=0;jettySize=auto;orthogonalLoop=1;dashed=1;" parent="1" source="1672d66443f91eb5-11" target="1672d66443f91eb5-9" edge="1">
                    <mxGeometry relative="1" as="geometry"/>
                </mxCell>
                <mxCell id="1672d66443f91eb5-11" value="&lt;b&gt;VerifiedBy&lt;/b&gt;&lt;div&gt;&amp;lt;&amp;lt;testCase&amp;gt;&amp;gt; MaxAcceleration&lt;/div&gt;" style="shape=note;size=15;align=left;spacingLeft=10;html=1;whiteSpace=wrap;strokeWidth=1;fontSize=12;" parent="1" vertex="1">
                    <mxGeometry x="832" y="825" width="210" height="60" as="geometry"/>
                </mxCell>
                <mxCell id="1672d66443f91eb5-20" style="edgeStyle=none;rounded=0;html=1;dashed=1;endArrow=none;endFill=0;jettySize=auto;orthogonalLoop=1;" parent="1" source="1672d66443f91eb5-12" target="1672d66443f91eb5-6" edge="1">
                    <mxGeometry relative="1" as="geometry"/>
                </mxCell>
                <mxCell id="1672d66443f91eb5-12" value="&lt;b&gt;SatisfiedBy&lt;/b&gt;&lt;div&gt;&amp;lt;&amp;lt;block&amp;gt;&amp;gt; PowerSubsystem&lt;/div&gt;" style="shape=note;size=15;align=left;spacingLeft=10;html=1;whiteSpace=wrap;strokeWidth=1;fontSize=12;" parent="1" vertex="1">
                    <mxGeometry x="1082" y="825" width="210" height="60" as="geometry"/>
                </mxCell>
                <mxCell id="1672d66443f91eb5-23" value="Title" style="text;strokeColor=none;fillColor=none;html=1;fontSize=24;fontStyle=1;verticalAlign=middle;align=center;" parent="1" vertex="1">
                    <mxGeometry x="120" y="40" width="1510" height="40" as="geometry"/>
                </mxCell>
            </root>
        </mxGraphModel>
    </diagram>
</mxfile>